<svg width="61" height="60" viewBox="0 0 61 60" fill="none" xmlns="http://www.w3.org/2000/svg">
<rect x="-67.4706" y="60" width="60" height="128.471" rx="30" transform="rotate(-90 -67.4706 60)" fill="url(#paint0_linear)"/>
<path fill-rule="evenodd" clip-rule="evenodd" d="M30.3873 4.57074C16.4399 4.57074 5.10159 15.909 5.10159 29.8565C5.10159 43.8039 16.4399 55.1422 30.3873 55.1422C44.324 55.1422 55.673 43.8039 55.673 29.8565C55.673 15.909 44.324 4.57074 30.3873 4.57074Z" fill="white"/>
<path fill-rule="evenodd" clip-rule="evenodd" d="M43.1424 11.7216C41.2098 16.6714 36.8183 17.7021 30.462 17.7021C29.7748 17.7021 29.0984 17.6914 28.4542 17.6807C27.8207 17.6699 27.2302 17.6592 26.6396 17.6592C26.1243 17.6592 25.5981 17.6699 25.0828 17.6914C25.9739 15.5011 27.402 14.0193 29.4205 13.1174C32.2444 11.8612 35.9164 11.8505 39.1483 11.8397C40.5441 11.829 41.897 11.8183 43.1424 11.7216Z" fill="#008F32"/>
<path fill-rule="evenodd" clip-rule="evenodd" d="M45.1187 13.3108C42.2626 19.5275 35.9063 20.1503 30.4519 20.1503C29.2601 20.1503 28.1112 20.1181 27.0483 20.1181L25.6739 25.4866C32.7067 19.753 42.005 25.4329 41.0172 34.0869C40.3515 39.9171 36.1962 43.7288 31.794 44.824C27.0053 46.0158 21.7012 44.2334 19.3283 39.3481C19.0814 38.8327 18.6412 37.802 18.4694 37.2436L23.5158 35.9444C23.6017 36.2343 23.752 36.5135 23.9131 36.7712C27.2952 42.2256 34.1455 39.4984 34.9185 33.84C35.7023 28.0849 27.6388 25.0249 23.956 31.7463L19.4787 29.8351L19.4035 29.8029L21.5616 21.1381C21.6905 20.5261 22.1414 18.7974 22.2166 18.5182C24.6539 9.54208 32.5564 9.4025 38.8805 9.38102C36.2606 8.29658 33.3939 7.68457 30.3768 7.68457C18.1365 7.68457 8.21552 17.6056 8.21552 29.8458C8.21552 42.086 18.1365 52.007 30.3768 52.007C42.617 52.007 52.538 42.086 52.538 29.8458C52.538 23.2747 49.6712 17.3694 45.1187 13.3108Z" fill="#EB2316"/>
<defs>
<linearGradient id="paint0_linear" x1="-78.3039" y1="132.916" x2="7.02941" y2="132.916" gradientUnits="userSpaceOnUse">
<stop offset="0.0810811" stop-color="#B58840"/>
<stop offset="0.494792" stop-color="#F2E996"/>
<stop offset="1" stop-color="#B58840"/>
</linearGradient>
</defs>
</svg>
