<svg width="61" height="60" viewBox="0 0 61 60" fill="none" xmlns="http://www.w3.org/2000/svg">
<rect x="-67.4707" y="60" width="60" height="128.471" rx="30" transform="rotate(-90 -67.4707 60)" fill="url(#paint0_linear)"/>
<path fill-rule="evenodd" clip-rule="evenodd" d="M30 5C16.2102 5 5 16.2102 5 30C5 43.7898 16.2102 55 30 55C43.7792 55 55 43.7898 55 30C55 16.2102 43.7792 5 30 5Z" fill="white"/>
<path d="M34.7907 22.3891L29.5839 27.6416L24.3771 22.3891C21.4996 19.5117 21.4996 14.8073 24.3771 11.9298C27.2545 9.05237 31.9132 9.05237 34.7907 11.9298C37.6681 14.8529 37.6681 19.5117 34.7907 22.3891Z" fill="#5FAF2D"/>
<path d="M24.3771 37.096L29.5839 31.8892L34.7907 37.1417C37.6681 40.0192 37.6681 44.7235 34.7907 47.601C31.9132 50.4784 27.2545 50.4784 24.3771 47.601C21.4996 44.6779 21.4996 40.0192 24.3771 37.096Z" fill="#005A28"/>
<path d="M36.937 34.995L31.7302 29.7425L36.937 24.4901C39.8145 21.6126 44.4732 21.6126 47.3506 24.4901C50.2281 27.3675 50.2281 32.0719 47.3506 34.9493C44.4732 37.8725 39.8145 37.8725 36.937 34.995Z" fill="#1EAF37"/>
<path d="M22.2758 24.5358L27.4826 29.7883L22.2758 34.9951C19.3984 37.8725 14.7396 37.8725 11.8622 34.9951C8.98474 32.1176 8.98474 27.4132 11.8622 24.5358C14.7396 21.6583 19.3984 21.6583 22.2758 24.5358Z" fill="#AAE641"/>
<defs>
<linearGradient id="paint0_linear" x1="-78.304" y1="132.916" x2="7.02929" y2="132.916" gradientUnits="userSpaceOnUse">
<stop offset="0.0810811" stop-color="#B58840"/>
<stop offset="0.494792" stop-color="#F2E996"/>
<stop offset="1" stop-color="#B58840"/>
</linearGradient>
</defs>
</svg>
