<svg width="85" height="94" viewBox="0 0 85 94" fill="none" xmlns="http://www.w3.org/2000/svg">
<rect y="-88" width="85" height="182" rx="42.5" fill="url(#paint0_linear)"/>
<path fill-rule="evenodd" clip-rule="evenodd" d="M43.1071 14C23.3482 14 7.28564 30.0626 7.28564 49.8214C7.28564 69.5803 23.3482 85.6429 43.1071 85.6429C62.8507 85.6429 78.9285 69.5803 78.9285 49.8214C78.9285 30.0626 62.8507 14 43.1071 14Z" fill="white"/>
<path fill-rule="evenodd" clip-rule="evenodd" d="M61.1768 24.1304C58.4389 31.1426 52.2177 32.6029 43.2129 32.6029C42.2394 32.6029 41.2811 32.5876 40.3685 32.5724C39.471 32.5572 38.6344 32.542 37.7978 32.542C37.0677 32.542 36.3224 32.5572 35.5923 32.5876C36.8548 29.4846 38.8778 27.3856 41.7374 26.1078C45.7379 24.3282 50.94 24.313 55.5184 24.2978C57.4958 24.2825 59.4124 24.2673 61.1768 24.1304Z" fill="#008F32"/>
<path fill-rule="evenodd" clip-rule="evenodd" d="M63.9763 26.3817C59.9302 35.1888 50.9254 36.071 43.1983 36.071C41.5099 36.071 39.8824 36.0254 38.3765 36.0254L36.4295 43.6308C46.3926 35.5082 59.5652 43.5547 58.1658 55.8146C57.2227 64.0741 51.3361 69.4739 45.0997 71.0254C38.3157 72.7138 30.8015 70.1888 27.44 63.2679C27.0901 62.5378 26.4665 61.0776 26.2231 60.2866L33.3722 58.4461C33.4939 58.8568 33.7068 59.2523 33.935 59.6173C38.7264 67.3444 48.4309 63.4809 49.526 55.4648C50.6364 47.3118 39.2131 42.9767 33.9958 52.4987L27.6529 49.7911L27.5464 49.7455L30.6038 37.4704C30.7863 36.6034 31.4252 34.1544 31.5317 33.759C34.9845 21.0427 46.1797 20.845 55.1388 20.8146C51.4274 19.2783 47.3661 18.4113 43.0919 18.4113C25.7516 18.4113 11.6968 32.466 11.6968 49.8064C11.6968 67.1467 25.7516 81.2014 43.0919 81.2014C60.4322 81.2014 74.487 67.1467 74.487 49.8064C74.487 40.4973 70.4257 32.1314 63.9763 26.3817Z" fill="#EB2316"/>
<defs>
<linearGradient id="paint0_linear" x1="-15.3472" y1="15.2973" x2="105.542" y2="15.2973" gradientUnits="userSpaceOnUse">
<stop offset="0.0810811" stop-color="#B58840"/>
<stop offset="0.494792" stop-color="#F2E996"/>
<stop offset="1" stop-color="#B58840"/>
</linearGradient>
</defs>
</svg>
