<svg width="85" height="94" viewBox="0 0 85 94" fill="none" xmlns="http://www.w3.org/2000/svg">
<rect y="-88" width="85" height="182" rx="42.5" fill="url(#paint0_linear)"/>
<path fill-rule="evenodd" clip-rule="evenodd" d="M42.6666 14.4396C23.0163 14.4396 7.04199 30.4139 7.04199 50.0642C7.04199 69.7145 23.0163 85.6888 42.6666 85.6888C62.3017 85.6888 78.2912 69.7145 78.2912 50.0642C78.2912 30.4139 62.3017 14.4396 42.6666 14.4396Z" fill="white"/>
<path d="M49.4931 39.2188L42.0735 46.7035L34.6539 39.2188C30.5535 35.1185 30.5535 28.4148 34.6539 24.3145C38.7542 20.2142 45.3928 20.2142 49.4931 24.3145C53.5934 28.4799 53.5934 35.1185 49.4931 39.2188Z" fill="#5FAF2D"/>
<path d="M34.6539 60.176L42.0735 52.7563L49.4931 60.2411C53.5934 64.3414 53.5934 71.0451 49.4931 75.1454C45.3928 79.2457 38.7542 79.2457 34.6539 75.1454C30.5535 70.98 30.5535 64.3414 34.6539 60.176Z" fill="#005A28"/>
<path d="M52.5519 57.1821L45.1323 49.6974L52.5519 42.2127C56.6523 38.1124 63.2909 38.1124 67.3912 42.2127C71.4915 46.313 71.4915 53.0167 67.3912 57.117C63.2909 61.2824 56.6523 61.2824 52.5519 57.1821Z" fill="#1EAF37"/>
<path d="M31.6598 42.2778L39.0795 49.7625L31.6598 57.1821C27.5595 61.2824 20.9209 61.2824 16.8206 57.1821C12.7203 53.0818 12.7203 46.3781 16.8206 42.2778C20.9209 38.1774 27.5595 38.1774 31.6598 42.2778Z" fill="#AAE641"/>
<defs>
<linearGradient id="paint0_linear" x1="-15.3472" y1="15.2973" x2="105.542" y2="15.2973" gradientUnits="userSpaceOnUse">
<stop offset="0.0810811" stop-color="#B58840"/>
<stop offset="0.494792" stop-color="#F2E996"/>
<stop offset="1" stop-color="#B58840"/>
</linearGradient>
</defs>
</svg>
